<svg width="160" height="54" viewBox="0 0 160 54" fill="none" xmlns="http://www.w3.org/2000/svg">
<g clip-path="url(#clip0)">
<path d="M71.0365 32.4092C69.5204 31.5982 67.4563 30.9653 64.8443 30.5107C62.9628 30.1604 61.5015 29.7672 60.4543 29.3249C59.407 28.8886 58.6885 28.3848 58.2867 27.8196C57.8848 27.2605 57.6839 26.5908 57.6839 25.8166C57.6839 24.6922 58.2501 23.7768 59.3826 23.0764C60.5152 22.3759 61.9704 22.0196 63.7483 22.0196C65.1791 22.0196 66.4456 22.2285 67.5598 22.6524C68.6741 23.0764 69.6665 23.7584 70.5372 24.7107C70.9573 25.1653 71.4688 25.448 72.0777 25.5524C72.6866 25.6569 73.2345 25.5708 73.7216 25.2882C74.2087 24.938 74.4888 24.4895 74.5558 23.9427C74.6228 23.3959 74.4523 22.8798 74.0322 22.3882C72.9849 21.055 71.6088 19.9921 69.904 19.1995C68.1991 18.4069 66.1777 18.0137 63.8457 18.0137C62.0008 18.0137 60.2838 18.3147 58.7007 18.9107C57.1176 19.5067 55.8329 20.4037 54.8587 21.6018C53.8845 22.7999 53.3974 24.2929 53.3974 26.0808C53.3974 28.0469 54.2072 29.7365 55.8268 31.1435C57.4464 32.5505 60.0159 33.552 63.5352 34.1479C66.2508 34.6026 68.1748 35.2354 69.3073 36.0464C70.4398 36.8575 70.9878 37.8589 70.9513 39.0509C70.9147 40.249 70.3424 41.2566 69.2281 42.0799C68.1139 42.9032 66.3543 43.321 63.9492 43.321C62.3113 43.321 60.8135 43.0507 59.4557 42.5038C58.0979 41.957 57.0507 41.2504 56.32 40.3657C55.8999 39.9418 55.4067 39.6899 54.8283 39.6038C54.2559 39.5178 53.6897 39.6837 53.1295 40.1077C52.6424 40.5316 52.3623 41.0415 52.2954 41.6375C52.2223 42.2335 52.3989 42.7619 52.819 43.2165C54.0367 44.5498 55.6685 45.582 57.7022 46.3008C59.7419 47.0197 61.8547 47.3822 64.0527 47.3822C66.3177 47.3822 68.2905 47.0136 69.9832 46.2763C71.6697 45.539 72.9788 44.5375 73.9043 43.2718C74.8298 42.0062 75.2864 40.5685 75.2864 38.9464C75.2864 37.6132 74.9576 36.3905 74.294 35.2846C73.6364 34.1725 72.5526 33.214 71.0365 32.4092Z" fill="#0F3041"/>
<path d="M99.5251 19.9368C97.3453 18.6527 94.9037 18.0137 92.182 18.0137C89.4299 18.0137 86.9579 18.6527 84.7599 19.9368C82.5679 21.2209 80.8326 22.9658 79.5601 25.1838C78.2875 27.3956 77.6543 29.9147 77.6543 32.7225C77.6543 35.4996 78.2632 37.9941 79.4809 40.2121C80.6987 42.424 82.3548 44.175 84.4432 45.4591C86.5317 46.7432 88.9002 47.3761 91.5488 47.3822C96.0179 47.3883 98.1916 46.5159 100.822 44.2733C101.346 43.8248 102.155 44.2057 102.155 44.9C102.155 45.5697 102.362 46.1042 102.783 46.5097C103.203 46.9152 103.738 47.118 104.402 47.118C105.029 47.118 105.559 46.9152 105.997 46.5097C106.43 46.1042 106.649 45.5697 106.649 44.9V32.7225C106.612 29.9085 105.961 27.3956 104.688 25.1838C103.428 22.9719 101.705 21.2209 99.5251 19.9368ZM100.962 38.1538C100.091 39.7697 98.8918 41.0354 97.3575 41.9509C95.8231 42.8663 94.1 43.321 92.182 43.321C90.2641 43.321 88.541 42.8663 87.0066 41.9509C85.4722 41.0354 84.2545 39.7697 83.3473 38.1538C82.44 36.538 81.9895 34.7255 81.9895 32.7225C81.9895 30.6827 82.44 28.8641 83.3473 27.2666C84.2545 25.6692 85.4722 24.4035 87.0066 23.4696C88.541 22.5357 90.2641 22.0749 92.182 22.0749C94.1 22.0749 95.8231 22.5418 97.3575 23.4696C98.8918 24.4035 100.091 25.6692 100.962 27.2666C101.833 28.8641 102.271 30.6827 102.271 32.7225C102.271 34.7255 101.833 36.538 100.962 38.1538Z" fill="#0F3041"/>
<path d="M146.366 19.3848C144.801 18.4386 143.005 17.9593 140.984 17.9593C138.792 17.9593 136.831 18.4509 135.108 19.4339C133.696 20.2388 132.539 21.3201 131.625 22.6595C128.204 18.1068 125.567 17.5723 121.433 17.5723C119.411 17.5723 117.621 18.0454 116.05 18.9977C114.486 19.9439 113.262 21.3078 112.391 23.0835C111.52 24.8591 111.082 26.9604 111.082 29.3811V44.5139C111.082 45.1836 111.283 45.7181 111.685 46.1236C112.087 46.5291 112.616 46.7319 113.28 46.7319C113.944 46.7319 114.48 46.5291 114.9 46.1236C115.32 45.7181 115.527 45.1836 115.527 44.5139V29.3873C115.527 28.226 115.667 27.2 115.947 26.2907C116.276 25.5288 116.726 24.8407 117.317 24.2324C118.638 22.8623 120.331 22.1742 122.383 22.1742C124.301 22.1742 125.865 22.8316 127.083 24.1525C128.301 25.4735 128.91 27.3413 128.91 29.7682V44.901C128.91 45.5707 129.129 46.1052 129.561 46.5107C129.994 46.9162 130.529 47.119 131.157 47.119C131.82 47.119 132.356 46.9162 132.776 46.5107C133.196 46.1052 133.403 45.5707 133.403 44.901V29.7743C133.367 27.4888 134.006 25.6517 135.309 24.2631C136.618 22.8746 138.293 22.1803 140.351 22.1803C142.269 22.1803 143.833 22.8377 145.051 24.1587C146.269 25.4796 146.878 27.3474 146.878 29.7743V44.9071C146.878 45.5768 147.085 46.1113 147.505 46.5169C147.925 46.9224 148.461 47.1251 149.124 47.1251C149.788 47.1251 150.318 46.9224 150.72 46.5169C151.122 46.1113 151.323 45.5768 151.323 44.9071V29.7743C151.323 27.3474 150.884 25.2462 150.013 23.4767C149.155 21.6949 147.937 20.3371 146.366 19.3848Z" fill="#0F3041"/>
<path d="M157.801 20.4961C157.138 20.4961 156.602 20.6988 156.182 21.1044C155.762 21.5099 155.555 22.0628 155.555 22.7632V44.8511C155.555 45.5208 155.762 46.0615 156.182 46.4854C156.602 46.9093 157.138 47.1182 157.801 47.1182C158.465 47.1182 158.995 46.9093 159.397 46.4854C159.799 46.0615 160 45.5208 160 44.8511V22.7632C160 22.0628 159.799 21.5099 159.397 21.1044C158.995 20.6988 158.465 20.4961 157.801 20.4961Z" fill="#0F3041"/>
<path d="M42.0686 9.91613C41.5024 6.40788 39.6453 3.28671 36.8445 1.124L35.986 0.466589C34.9996 -0.295272 33.5748 -0.104807 32.8198 0.896672C32.0648 1.89201 32.2536 3.32971 33.246 4.09158L34.3116 4.91488C38.1231 7.85173 38.9025 13.3998 36.0468 17.2828C35.5293 17.928 35.4867 18.5424 35.5476 18.9417C35.6511 19.6852 36.1504 20.2688 36.5461 20.5453C36.5583 20.5515 36.5705 20.5576 36.5827 20.5699C36.9967 20.8218 37.429 20.9078 37.843 20.8894C38.6833 20.8525 39.4383 20.361 39.7914 19.8449C41.8312 16.9756 42.641 13.4551 42.0686 9.91613Z" fill="#D60F29"/>
<path d="M8.99989 49.9143L7.93436 49.091C4.3968 46.363 3.42869 41.3925 5.67544 37.5218C5.9129 37.1101 6.18689 36.7169 6.49133 36.3483C6.91754 35.826 7.13065 35.144 7.06367 34.5235C6.9967 33.9275 6.68008 33.393 6.15645 32.9875C5.11528 32.1826 3.74531 32.6004 3.01466 33.4606C2.7772 33.737 2.59454 33.9705 2.46667 34.1487C2.1805 34.548 1.91869 34.9597 1.68122 35.3836C-1.57625 41.2082 0.025086 48.7224 5.40145 52.8696L6.25996 53.527C6.69835 53.8649 7.22198 54.0124 7.73344 53.9939C8.37884 53.9632 9.00598 53.656 9.42611 53.1031C9.79143 52.6177 9.94974 52.0217 9.87058 51.4196C9.78534 50.8175 9.4809 50.2829 8.99989 49.9143Z" fill="#D60F29"/>
<path d="M28.983 22.9288L19.3749 15.5252C18.3886 14.7633 16.9638 14.9538 16.2088 15.9553C15.4538 16.9506 15.6425 18.3883 16.635 19.1502L26.4501 26.7135C28.4106 28.2249 29.6588 30.5166 29.878 33.005C30.0972 35.524 29.2874 37.9448 27.5826 39.8187C24.5382 43.1734 19.2532 43.5666 15.5573 40.7219L15.3685 40.5744C14.8875 40.2058 14.2969 40.0461 13.7002 40.1259C13.1035 40.2058 12.5738 40.5192 12.2085 40.9984C11.4535 41.9937 11.6422 43.4314 12.6347 44.1933L13.0122 44.4821C15.5268 46.4236 18.5651 47.3759 21.6826 47.2346C22.1392 47.2162 22.602 47.167 23.0586 47.0994C26.651 46.5649 29.7989 44.6295 31.9299 41.6497C33.9757 38.7865 34.7916 35.2598 34.2193 31.7209C33.6469 28.2126 31.7899 25.0853 28.983 22.9288Z" fill="#D60F29"/>
<path d="M19.814 35.3655C19.8809 35.3655 19.9479 35.3594 20.0149 35.3471C20.6116 35.2672 21.1413 34.9539 21.5066 34.4746C22.2616 33.4793 22.0729 32.0416 21.0804 31.2797L12.6536 24.7732C10.7113 23.2802 9.49963 21.099 9.23782 18.6414C8.976 16.1838 9.71274 13.7938 11.3019 11.9137C14.3402 8.31944 19.6922 7.79719 23.4855 10.7218L27.4188 13.7508C27.8998 14.1194 28.4904 14.2792 29.0871 14.1993C29.6838 14.1194 30.2135 13.8061 30.5789 13.3268C30.9442 12.8415 31.1025 12.2455 31.0233 11.6434C30.9442 11.0412 30.6337 10.5067 30.1587 10.1381L26.0975 7.01076C23.1993 4.77432 19.6191 3.84657 16.0146 4.39339C12.4101 4.94021 9.25608 6.90016 7.1372 9.9046C5.11574 12.7677 4.31202 16.2698 4.8661 19.7719C5.42017 23.2556 7.25897 26.3522 10.0354 28.4965L18.3466 34.8986C18.7728 35.2242 19.2842 35.3901 19.814 35.3655Z" fill="#D60F29"/>
</g>
<defs>
<clipPath id="clip0">
<rect width="160" height="54" fill="white"/>
</clipPath>
</defs>
</svg>
